<svg width="262" height="36" viewBox="0 0 262 36" fill="none" xmlns="http://www.w3.org/2000/svg">
<path d="M52.428 26.483C48.3583 26.483 45.818 23.2947 45.818 19.5101C45.818 15.7256 48.3583 12.5372 52.428 12.5372C55.72 12.5372 57.9493 14.6887 58.5455 17.4883H55.2275C54.7868 16.244 53.75 15.4923 52.428 15.4923C50.3802 15.4923 49.0323 17.0994 49.0323 19.5101C49.0323 21.9208 50.3802 23.528 52.428 23.528C53.8018 23.528 54.8646 22.7244 55.2794 21.4024H58.5714C58.027 24.2797 55.7719 26.483 52.428 26.483Z" fill="black"/>
<path d="M66.233 26.483C62.1115 26.483 59.5453 23.2947 59.5453 19.5101C59.5453 15.7256 62.1115 12.5372 66.233 12.5372C70.3545 12.5372 72.9208 15.7256 72.9208 19.5101C72.9208 23.2947 70.3545 26.483 66.233 26.483ZM62.7855 19.5101C62.7855 21.9208 64.1852 23.528 66.233 23.528C68.2549 23.528 69.6547 21.9208 69.6547 19.5101C69.6547 17.0994 68.2549 15.4923 66.233 15.4923C64.1852 15.4923 62.7855 17.0994 62.7855 19.5101Z" fill="black"/>
<path d="M82.82 18.24C82.82 17.229 82.5607 16.6328 82.1201 16.1663C81.7053 15.7515 81.0832 15.4923 80.3574 15.4923C79.5798 15.4923 78.9577 15.7515 78.5429 16.1663C78.1022 16.6328 77.843 17.229 77.843 18.24V26.1201H74.6028V12.9001H77.7134V13.8592C78.517 13.0557 79.6316 12.5372 81.0573 12.5372C82.6126 12.5372 83.8568 13.1075 84.7382 14.0925C85.5676 14.9739 86.0602 16.1922 86.0602 18.0585V26.1201H82.82V18.24Z" fill="black"/>
<path d="M93.0883 26.3016C91.533 26.3016 90.7035 25.9127 90.1592 25.2647C89.6926 24.7204 89.4593 23.9686 89.4593 22.6466V15.6997H86.6339V12.9001H89.5371V8.7527H92.6736V12.9001H95.7842V15.6997H92.6736V22.1541C92.6736 22.9577 92.8291 23.3465 93.6845 23.3465H95.7842V26.3016H93.0883Z" fill="black"/>
<path d="M102.627 26.483C98.609 26.483 96.0946 23.2947 96.0946 19.5101C96.0946 15.7256 98.5312 12.5372 102.445 12.5372C106.36 12.5372 108.796 15.7256 108.796 19.5101C108.796 19.899 108.77 20.2619 108.718 20.5729H99.283C99.4903 22.4393 100.76 23.6576 102.627 23.6576C103.949 23.6576 104.96 22.9836 105.4 21.869H108.563C107.889 24.513 105.737 26.483 102.627 26.483ZM99.283 18.1363H105.608C105.4 16.4255 104.182 15.259 102.471 15.259C100.735 15.259 99.4903 16.4255 99.283 18.1363Z" fill="black"/>
<path d="M118.686 18.24C118.686 17.229 118.427 16.6328 117.986 16.1663C117.571 15.7515 116.949 15.4923 116.223 15.4923C115.446 15.4923 114.824 15.7515 114.409 16.1663C113.968 16.6328 113.709 17.229 113.709 18.24V26.1201H110.469V12.9001H113.579V13.8592C114.383 13.0557 115.497 12.5372 116.923 12.5372C118.478 12.5372 119.723 13.1075 120.604 14.0925C121.434 14.9739 121.926 16.1922 121.926 18.0585V26.1201H118.686V18.24Z" fill="black"/>
<path d="M128.954 26.3016C127.399 26.3016 126.569 25.9127 126.025 25.2647C125.558 24.7204 125.325 23.9686 125.325 22.6466V15.6997H122.5V12.9001H125.403V8.7527H128.539V12.9001H131.65V15.6997H128.539V22.1541C128.539 22.9577 128.695 23.3465 129.55 23.3465H131.65V26.3016H128.954Z" fill="black"/>
<path d="M144.096 26.483C140.026 26.483 137.486 23.2947 137.486 19.5101C137.486 15.7256 140.026 12.5372 144.096 12.5372C147.388 12.5372 149.617 14.6887 150.214 17.4883H146.896C146.455 16.244 145.418 15.4923 144.096 15.4923C142.048 15.4923 140.7 17.0994 140.7 19.5101C140.7 21.9208 142.048 23.528 144.096 23.528C145.47 23.528 146.533 22.7244 146.947 21.4024H150.239C149.695 24.2797 147.44 26.483 144.096 26.483Z" fill="black"/>
<path d="M151.809 26.1201V12.9001H154.92V14.3258C155.646 13.3667 156.786 12.7446 158.497 12.7446H159.301V15.8034H158.471C157.305 15.8034 156.579 16.0626 156.035 16.5551C155.413 17.0735 155.05 17.9289 155.05 19.225V26.1201H151.809Z" fill="black"/>
<path d="M166.056 26.483C162.038 26.483 159.523 23.2947 159.523 19.5101C159.523 15.7256 161.96 12.5372 165.874 12.5372C169.788 12.5372 172.225 15.7256 172.225 19.5101C172.225 19.899 172.199 20.2619 172.147 20.5729H162.712C162.919 22.4393 164.189 23.6576 166.056 23.6576C167.378 23.6576 168.389 22.9836 168.829 21.869H171.992C171.318 24.513 169.166 26.483 166.056 26.483ZM162.712 18.1363H169.037C168.829 16.4255 167.611 15.259 165.9 15.259C164.163 15.259 162.919 16.4255 162.712 18.1363Z" fill="black"/>
<path d="M183.255 26.1201V24.9277C182.296 25.8868 181 26.483 179.445 26.483C175.66 26.483 173.301 23.2428 173.301 19.5101C173.301 15.7256 175.66 12.5372 179.445 12.5372C180.948 12.5372 182.192 13.0816 183.151 13.9629V7.45662H186.392V26.1201H183.255ZM176.541 19.5101C176.541 21.8949 177.915 23.528 179.963 23.528C182.011 23.528 183.385 21.8949 183.385 19.5101C183.385 17.1253 182.011 15.4923 179.963 15.4923C177.915 15.4923 176.541 17.1253 176.541 19.5101Z" fill="black"/>
<path d="M194.365 26.483C190.347 26.483 187.833 23.2947 187.833 19.5101C187.833 15.7256 190.269 12.5372 194.183 12.5372C198.097 12.5372 200.534 15.7256 200.534 19.5101C200.534 19.899 200.508 20.2619 200.456 20.5729H191.021C191.228 22.4393 192.498 23.6576 194.365 23.6576C195.687 23.6576 196.698 22.9836 197.138 21.869H200.301C199.627 24.513 197.475 26.483 194.365 26.483ZM191.021 18.1363H197.346C197.138 16.4255 195.92 15.259 194.209 15.259C192.472 15.259 191.228 16.4255 191.021 18.1363Z" fill="black"/>
<path d="M210.165 18.24C210.165 17.229 209.905 16.6328 209.465 16.1663C209.05 15.7515 208.428 15.4923 207.702 15.4923C206.924 15.4923 206.302 15.7515 205.887 16.1663C205.447 16.6328 205.188 17.229 205.188 18.24V26.1201H201.947V12.9001H205.058V13.8592C205.862 13.0557 206.976 12.5372 208.402 12.5372C209.957 12.5372 211.201 13.1075 212.083 14.0925C212.912 14.9739 213.405 16.1922 213.405 18.0585V26.1201H210.165V18.24Z" fill="black"/>
<path d="M220.655 26.3016C219.099 26.3016 218.27 25.9127 217.726 25.2647C217.259 24.7204 217.026 23.9686 217.026 22.6466V15.6997H214.2V12.9001H217.103V8.7527H220.24V12.9001H223.35V15.6997H220.24V22.1541C220.24 22.9577 220.395 23.3465 221.251 23.3465H223.35V26.3016H220.655Z" fill="black"/>
<path d="M224.536 26.1201V12.9001H227.776V26.1201H224.536ZM224.484 11.3189V7.84544H227.828V11.3189H224.484Z" fill="black"/>
<path d="M234.286 26.483C231.357 26.483 229.49 24.6685 229.49 22.4393C229.49 19.3287 231.771 18.5251 234.7 18.2141L235.945 18.0585C236.645 17.9808 237.215 17.903 237.733 17.7993V17.5142C237.733 16.7106 237.5 16.1922 237.137 15.8293C236.748 15.4664 236.152 15.259 235.452 15.259C234.078 15.259 233.171 15.9589 233.093 17.0735H229.931C230.035 14.585 232.108 12.5372 235.478 12.5372C237.111 12.5372 238.459 13.0297 239.366 13.7815C240.533 14.7406 240.896 15.8034 240.896 17.4364V23.3465C240.896 24.513 240.922 25.4462 240.948 26.2757V26.3016H238.018L237.967 25.0573C237.267 25.9387 235.971 26.483 234.286 26.483ZM232.705 22.4133C232.705 23.3724 233.534 23.9686 234.83 23.9686C235.763 23.9686 236.541 23.6835 237.007 23.2169C237.474 22.7762 237.733 22.18 237.733 21.1691V20.21C237.111 20.3655 236.748 20.4174 236.074 20.5211L235.141 20.6766C233.923 20.884 232.705 21.1173 232.705 22.4133Z" fill="black"/>
<path d="M243.029 26.1201V7.45662H246.269V26.1201H243.029Z" fill="black"/>
<path d="M253.583 26.483C250.031 26.483 248.01 24.4611 247.802 22.0764H251.042C251.302 23.2169 252.235 23.7872 253.583 23.7872C254.931 23.7872 255.942 23.2688 255.942 22.3356C255.942 21.6098 255.397 21.3506 254.49 21.1691L251.976 20.6766C249.254 20.1582 248.139 18.6806 248.139 16.7106C248.139 14.585 250.057 12.5372 253.375 12.5372C256.719 12.5372 258.637 14.5591 258.767 16.7884H255.553C255.371 15.7774 254.568 15.2331 253.349 15.2331C252.183 15.2331 251.327 15.7256 251.327 16.5292C251.327 17.1513 251.768 17.4883 252.701 17.6438L255.216 18.1363C257.886 18.6547 259.156 20.0545 259.156 22.1541C259.156 24.4093 257.108 26.483 253.583 26.483Z" fill="black"/>
<path d="M13.6652 26.4829C9.59549 26.4829 7.05518 23.2945 7.05518 19.51C7.05518 15.7255 9.59549 12.5371 13.6652 12.5371C16.9572 12.5371 19.1865 14.6886 19.7826 17.4881H16.4647C16.024 16.2439 14.9872 15.4922 13.6652 15.4922C11.6174 15.4922 10.2694 17.0993 10.2694 19.51C10.2694 21.9207 11.6174 23.5278 13.6652 23.5278C15.039 23.5278 16.1018 22.7243 16.5165 21.4023H19.8086C19.2642 24.2796 17.009 26.4829 13.6652 26.4829Z" fill="black"/>
<path d="M21.1194 26.12V12.9H24.23V14.3257C24.9558 13.3666 26.0964 12.7445 27.8072 12.7445H28.6107V15.8032H27.7813C26.6148 15.8032 25.889 16.0624 25.3446 16.5549C24.7225 17.0734 24.3596 17.9288 24.3596 19.2249V26.12H21.1194Z" fill="black"/>
<path d="M1.56009 18C1.56009 8.92061 8.92143 1.56009 18.0011 1.56009C27.0819 1.56009 34.4441 8.92156 34.4441 18.0021V34.4399H18C8.9205 34.4399 1.56009 27.0795 1.56009 18Z" stroke="black" stroke-width="3.12018"/>
</svg>
